<svg
  xmlns="http://www.w3.org/2000/svg"
  width="512"
  height="512"
  x="0"
  y="0"
  viewBox="0 0 100 100"
>
  <title>map marker icon</title>
  <g>
    <g id="Layer_50" data-name="Layer 50">
      <path
        d="m50 3a34.53127 34.53127 0 0 0 -34.49219 34.49219c0 18.44873 31.60157 57.13916 32.94678 58.77734a2 2 0 0 0 3.09082 0c1.34522-1.63818 32.94678-40.32861 32.94678-58.77734a34.53127 34.53127 0 0 0 -34.49219-34.49219zm0 88.80322c-6.4043-8.083-30.49219-39.47412-30.49219-54.311a30.49219 30.49219 0 1 1 60.98438 0c0 14.83688-24.08789 46.22799-30.49219 54.311z"
        fill="#93ab79"
        data-original="#000000"
        class=""
      ></path>
      <path
        d="m50 22.26514a14.07666 14.07666 0 1 0 14.07666 14.07666 14.09283 14.09283 0 0 0 -14.07666-14.07666zm0 24.15332a10.07666 10.07666 0 1 1 10.07666-10.07666 10.08825 10.08825 0 0 1 -10.07666 10.07666z"
        fill="#93ab79"
        data-original="#000000"
        class=""
      ></path>
    </g>
  </g>
</svg>
